<?xml version="1.0" standalone="no"?><!DOCTYPE svg PUBLIC "-//W3C//DTD SVG 1.1//EN" "http://www.w3.org/Graphics/SVG/1.1/DTD/svg11.dtd"><svg t="1545296820488" class="icon" style="" viewBox="0 0 1024 1024" version="1.1" xmlns="http://www.w3.org/2000/svg" p-id="4840" xmlns:xlink="http://www.w3.org/1999/xlink" width="200" height="200"><defs><style type="text/css"></style></defs><path d="M510.613932 70.428026c-244.215094 0-442.208471 198.074218-442.208471 442.302615 0 244.187465 197.992353 442.22075 442.208471 442.22075 244.363474 0 442.314895-198.033285 442.314895-442.22075C952.916547 268.502243 754.964102 70.428026 510.613932 70.428026zM577.849242 841.695954c-27.255761 19.698644-61.321624 35.70827-96.838535 24.284079-21.273513-6.958482-40.252773-20.063965-58.934251-33.80799L176.81759 631.833249l0-59.611679 242.831584 195.305151c23.063275 14.44806 54.157457 23.564695 82.105996 12.779048 25.911136-10.228969 48.581462-28.149107 70.803579-47.210231l183.314049-158.14788-42.11212-34.17638L522.091334 698.322569c-19.386536 14.733563-41.663912 26.538423-66.980507 21.286816-23.306822-4.857635-41.35078-22.901593-61.375859-36.033681L215.672526 538.600845c-13.511735-10.201339-27.254737-20.972661-39.410592-33.169447l-0.298805-39.641859 216.144782 171.84995c19.35993 12.156878 45.639456 23.9996 68.566632 11.124362l24.311709-15.750729 168.606069-139.330302c-8.451486-9.578146-23.415292-19.278065-34.514071-17.853623-8.438183 0.949628-16.252149 3.906983-24.121374 9.537214L474.838124 584.782653c-10.461259 7.027044-28.328185 15.575744-41.487903 12.509918-32.898271-7.67889-56.519248-35.95284-80.749092-54.9321l-181.278693-147.864676 253.928317-210.203466c62.950727-45.801139 127.676891-40.34794 185.389314 2.808976L846.498842 381.051599c0.149403 0.231267-0.096191 57.685817-0.339738 57.577347L659.820162 286.695604c-19.495006-15.927761-79.270415-80.423681-133.903709-59.476603-29.317723 11.232832-53.399187 32.532951-78.728062 52.218292L265.355065 431.736978c0.215918 0.1361 44.756343 37.322024 44.756343 37.322024l178.75522-149.288095c30.538527-22.602787 73.138764-30.620391 108.84601-13.905708 0 0 17.664312 9.402137 24.77322 15.669888 8.750291 7.759731 224.012983 183.313026 224.012983 183.313026-0.339738 13.024641 0.556679 29.561269-1.031493 42.274826L634.396119 375.71915c-26.808576-17.120936-68.146053-17.472953-94.735641 1.276063-58.18826 46.330188-112.605637 92.063789-169.097256 141.216255 10.528797 14.081717 26.780947 20.389376 44.539402 14.855336l12.45466-6.932899 116.538203-99.186c16.389272-10.148128 49.803289-15.412015 66.910922-4.789073l19.021216 12.508895L848.736812 612.676957l0 3.051499L577.849242 841.695954z" p-id="4841" fill="#1296db"></path></svg>